<?xml version="1.0" encoding="UTF-8" standalone="no"?>
<svg
   xmlns:dc="http://purl.org/dc/elements/1.1/"
   xmlns:cc="http://creativecommons.org/ns#"
   xmlns:rdf="http://www.w3.org/1999/02/22-rdf-syntax-ns#"
   xmlns:svg="http://www.w3.org/2000/svg"
   xmlns="http://www.w3.org/2000/svg"
   viewBox="0 0 246.56 294.57333"
   height="294.57333"
   width="246.56"
   xml:space="preserve"
   id="svg2"
   version="1.1"><metadata
     id="metadata8"><rdf:RDF><cc:Work
         rdf:about=""><dc:format>image/svg+xml</dc:format><dc:type
           rdf:resource="http://purl.org/dc/dcmitype/StillImage" /></cc:Work></rdf:RDF></metadata><defs
     id="defs6" /><g
     transform="matrix(1.3333333,0,0,-1.3333333,0,294.57333)"
     id="g10"><g
       transform="scale(0.1)"
       id="g12"><path
         id="path14"
         style="fill:#73b0e4;fill-opacity:1;fill-rule:nonzero;stroke:none"
         d="m 920.895,2118.34 c 234.235,0 424.115,-189.89 424.115,-424.12 0,-189.34 -128.92,-348.89 -300.21,-403.4 0,0 -33.46,-27.41 -68.905,-85.65 l 9.511,-20.75 c 254.274,31.3 450.604,247.19 450.604,509.8 0,284.04 -231.09,515.12 -515.115,515.12 v 0 c -215.922,0 -401.247,-133.54 -477.711,-322.36 0,0 110.461,31.49 224.211,11.99 113.753,-19.5 222.621,-95.88 352.615,-84.5 0,0 123.5,0 146.25,94.24 0,0 6.51,50.39 -16.25,16.25 -22.75,-34.12 -82.87,-110.49 -298.998,-19.49 0,0 -162.535,91.05 -236.449,82.08 77.195,80.61 185.902,130.79 306.332,130.79 M 806.91,1284.48 c -180.472,48.74 -310.14,213.86 -310.14,409.74 0,41.67 6.011,81.95 17.207,119.98 0,0 132.293,0.27 330.55,-76.11 0,0 285.993,-123.5 375.373,-8.13 0,0 45.49,45.51 27.61,120.26 0,0 -3.24,27.63 -11.36,3.25 0,0 -34.12,-89.37 -211.25,-78 0,0 0,0 -61.759,13 -61.739,13 -141.368,47.12 -313.621,65 0,0 -78.434,14.75 -219.586,-3.18 -15.696,-49.26 -24.164,-101.69 -24.164,-156.07 0,-262.13 203.175,-479.61 456.785,-511.53 0,0 -3.047,-6.11 10.097,21.62 0,0 -31.015,47.86 -65.742,80.17" /><path
         id="path16"
         style="fill:#1478c7;fill-opacity:1;fill-rule:nonzero;stroke:none"
         d="m 926.129,890.219 c -7.363,31.14 -11.25,63.582 -11.25,96.91 0,36.441 4.648,71.831 13.398,105.601 10.371,40.11 26.504,77.91 47.5,112.49 53.513,88.18 139.413,155.13 240.093,185.51 0,0 51.2,49.02 80.86,107.69 -264.04,-20.8 -472.847,-241.89 -472.847,-511.291 0,-80.457 18.535,-156.57 51.562,-224.348 39.336,62.598 50.684,127.438 50.684,127.438 z m 1.816,-213.61 c 89.845,-121.789 240.995,-202.14 408.595,-202.14 238.77,0 439.41,163.242 496.4,384.211 -60.09,-32.789 -99.64,-32.598 -99.64,-32.598 -1.25,-0.07 -2.5,-0.191 -3.73,-0.23 -40.94,-1.114 -119.87,45.347 -119.87,45.347 0,0 -33.26,-62.969 -130.72,-64.179 -97.44,-1.211 -159.26,64.179 -159.26,64.179 0,0 -54.67,-62.969 -149.74,-64.179 -95.08,-1.211 -128.36,64.179 -128.36,64.179 V 772 c 0,0 26.15,-44.078 125.97,-46.66 99.83,-2.578 152.13,52.519 152.13,52.519 0,0 42.78,-52.109 152.13,-52.519 109.34,-0.41 135.47,52.519 135.47,52.519 0,0 12.42,-26.519 67.87,-41.328 l -0.43,-0.922 c -76.93,-103.187 -199.9,-170.14 -338.22,-170.14 -151.29,0 -283.62,76.07 -358.028,196.082 0,0 -21.114,-45.66 -50.567,-84.942 z M 1846.66,935.77 c 1.66,16.902 2.53,34.019 2.53,51.359 0,263.021 -197.32,479.441 -452.46,508.881 0,0 -15.17,-38.03 -48.34,-89.23 226.84,-6.52 409.79,-191.26 409.79,-419.651 0,-11.957 -0.49,-23.84 -1.47,-35.578 l -0.35,-0.449 c -8.34,-1.743 -11.97,-1.403 -21.19,-1.313 -64.49,0.711 -88.09,48.043 -88.09,48.043 0,0 -15.74,-48.762 -84.94,-48.043 -69.22,0.711 -97.54,48.043 -97.54,48.043 0,0 -22.01,-47.121 -86.5,-48.043 -64.49,-0.91 -105.39,48.043 -105.39,48.043 0,0 -36.17,-47.121 -99.1,-48.043 -62.93,-0.91 -84.94,48.043 -84.94,48.043 v -74.25 c 0,0 17.3,-33 83.38,-34.941 66.05,-1.911 100.66,39.32 100.66,39.32 0,0 28.32,-39.012 100.66,-39.32 72.37,-0.289 89.67,39.32 89.67,39.32 0,0 23.6,-39.012 94.38,-39.32 70.78,-0.289 91.23,41.507 91.23,41.507 0,0 22.03,-41.199 83.38,-41.507 7.11,-0.02 14.59,0.179 14.59,0.179 69.37,12.668 100.88,48.629 100.04,46.95" /><path
         id="path18"
         style="fill:#007b5e;fill-opacity:1;fill-rule:nonzero;stroke:none"
         d="m 231.785,666.012 c 0,0 22.531,42.648 34.797,71.09 12.266,28.437 22.559,60.308 28.926,85.82 6.379,25.488 -0.488,44.609 -1.961,53.437 -1.477,8.821 -9.809,44.61 -21.574,58.821 -11.77,14.218 -28.926,-30.871 -37.754,-52.461 -8.828,-21.559 -7.356,-33.34 -7.356,-33.34 l 0.492,-39.207 c -2.453,-13.742 23.758,-51.024 23.758,-51.024 l -3.906,-10.718 c 0,0 -0.73,4.859 -15.437,20.058 -14.707,15.192 -19.133,14.703 -42.661,23.043 -23.535,8.321 -34.324,7.828 -34.324,7.828 -10.793,-4.41 2.449,-17.629 26.961,-40.679 24.524,-23.051 61.567,-18.848 61.567,-18.848 L 213.691,683.23 C 137.883,759.66 90.9961,864.789 90.9961,980.66 c 0,227.42 181.8949,413.55 407.1799,422.37 -40.188,62 -49.367,86.97 -49.367,86.97 C 196.035,1457.89 0,1242.16 0,980.66 0,829.27 65.5195,693.148 169.758,599.16 c 7.078,-6.39 14.336,-12.558 21.758,-18.558 z m 43.567,-37.551 62.644,125.32 c 52.297,18.649 51.176,70.598 51.176,70.598 11.277,66.68 26.473,111.801 26.473,111.801 11.765,44.621 69.128,68.62 69.128,68.62 9.321,1.49 0,13.27 0,13.27 -61.777,64.21 -125.515,-2.47 -125.515,-2.47 -50.012,-59.811 -48.059,-137.76 -46.094,-194.17 1.965,-56.379 -7.383,-73 -7.383,-73 L 213.254,564 c 5.625,-4.059 14.391,-10.191 20.191,-14.02 z m 143.64,-152.973 c 29.223,-5.156 63.867,-8.379 94.582,-8.379 283.629,0 513.566,229.93 513.566,513.551 0,80.57 -18.45,156.72 -51.519,224.58 0,0 -34.082,-49.67 -50.801,-126.65 7.266,-30.97 11.328,-64.76 11.328,-97.93 0,-232.988 -189.578,-422.558 -422.574,-422.558 -11.203,0 -22.304,0.429 -33.281,1.289 l 26.582,58.211 c 0,0 3.906,2.789 10.273,9.179 6.375,6.36 18.645,12.239 18.645,12.239 2.937,5.39 23.035,4.921 23.035,4.921 l 99.363,-8.121 c 27.297,-9.082 82.004,9.649 82.004,9.649 -24.582,55.011 -72.507,54.851 -80.351,55.34 -7.852,0.492 -31.387,-4.411 -56.387,-7.848 -25.012,-3.441 -79.98,-44.27 -79.98,-44.27 l 35.144,71.848 c 17.442,-21.449 37.961,-14.828 44.836,-12.867 6.863,1.969 36.277,4.918 56.387,109.348 20.097,104.429 -7.508,174.82 -7.508,174.82 0,0 -30.258,-0.77 -72.426,-71.852 -42.168,-71.09 -40.808,-174.789 -40.808,-174.789 L 454.285,562.262 Z m -26.551,100.313 32.442,68.609 c 46.484,4.379 74.121,41.692 89.812,71.61 15.696,29.91 16.184,66.679 17.66,94.628 1.473,27.954 2.95,68.153 2.95,68.153 0,13.238 10.293,45.121 10.293,45.121 10.293,25.008 -43.645,-0.492 -43.645,-0.492 -67.168,-22.559 -86.301,-68.66 -100.515,-109.848 -14.219,-41.191 -5.84,-120.91 -5.84,-120.91 L 348.191,591.82 307.012,510.332 c 5.539,-2.441 11.133,-4.762 16.777,-7.012 l 70.781,138.141 8.828,-3.902 -69.921,-137.989 c 6.535,-2.461 10.539,-4.769 17.199,-6.949 z m 531.012,714.369 c -87.305,115.42 -224.293,194.6 -377.625,204.71 26.985,-59.13 77.5,-104.78 77.5,-104.78 101.723,-29 193.895,-98.25 248.758,-185.97 0,0 18.281,39.96 51.367,86.04" /><path
         id="path20"
         style="fill:#007b5e;fill-opacity:1;fill-rule:nonzero;stroke:none"
         d="m 586.875,599.059 c 0,-15.879 -12.891,-28.77 -28.777,-28.77 -15.891,0 -28.782,12.891 -28.782,28.77 0,15.902 12.891,28.773 28.782,28.773 15.886,0 28.777,-12.871 28.777,-28.773" /><path
         id="path22"
         style="fill:#1478c7;fill-opacity:1;fill-rule:nonzero;stroke:none"
         d="m 211.73,409.59 h 119.676 l 46.153,-224 45.82,224 H 542.988 V 41.4609 H 468.457 V 322.211 L 411.035,41.4609 H 343.574 L 286.25,322.211 V 41.4609 H 211.73 V 409.59" /><path
         id="path24"
         style="fill:#1478c7;fill-opacity:1;fill-rule:nonzero;stroke:none"
         d="M 724.109,326.23 V 125.102 h 22.297 c 19.024,0 32.555,2.589 40.582,7.91 8.047,5.25 14.336,14.468 18.887,27.609 4.551,13.129 6.836,34.418 6.836,63.91 0,38.981 -5.098,65.699 -15.273,80.098 -10.176,14.391 -27.055,21.601 -50.629,21.601 z m -90.996,83.36 h 135.2 c 26.644,0 48.187,-4.531 64.593,-13.559 16.407,-9.043 29.942,-22.031 40.645,-38.902 10.722,-16.938 18.496,-36.578 23.301,-59.039 4.824,-22.43 7.226,-46.18 7.226,-71.309 0,-39.34 -3.515,-69.851 -10.703,-91.551 C 886.207,113.57 876.227,95.3906 863.512,80.7617 850.797,66.0898 837.125,56.3516 822.535,51.5 802.594,44.8008 784.508,41.4609 768.313,41.4609 h -135.2 V 409.59" /><path
         id="path26"
         style="fill:#1478c7;fill-opacity:1;fill-rule:nonzero;stroke:none"
         d="M 982.574,409.59 H 1226.44 V 331 H 1073.8 v -58.52 h 141.61 V 197.422 H 1073.8 V 124.82 h 157.05 V 41.4609 H 982.574 V 409.59" /><path
         id="path28"
         style="fill:#1478c7;fill-opacity:1;fill-rule:nonzero;stroke:none"
         d="m 1502.61,153.441 c 7.25,16.25 10.84,40.52 10.84,72.848 0,37.152 -5.51,63.672 -16.54,79.633 -11.08,15.859 -26.31,23.808 -45.7,23.808 -18.11,0 -32.76,-8.128 -44.01,-24.378 -11.27,-16.231 -16.89,-41.563 -16.89,-76.051 0,-40.18 5.49,-68.403 16.48,-84.653 11,-16.25 26.06,-24.339 45.2,-24.339 6.17,0 11.99,0.761 17.5,2.23 -7.66,9.223 -19.71,17.93 -36.16,26.133 l 14.24,40.937 c 8.05,-1.839 14.3,-4.121 18.79,-6.8 4.49,-2.649 13.21,-9.719 26.23,-21.071 3.05,-2.679 6.39,-5.429 10.02,-8.297 z m 69.73,-58.2496 c 11.37,-9.8828 18.81,-16.0703 22.28,-18.5898 5.22,-3.6719 12.25,-7.9532 21.12,-12.75 L 1590.39,0 c -12.72,7.75 -25.28,16.8906 -37.76,27.5391 -12.44,10.6015 -21.15,18.5898 -26.09,23.9609 -20.08,-10.8789 -45.29,-16.3281 -75.55,-16.3281 -44.73,0 -80.02,14.5898 -105.88,43.7187 -30.54,34.4684 -45.8,82.9294 -45.8,145.3904 0,60.578 13.36,107.649 40.1,141.25 26.7,33.551 64.02,50.328 111.97,50.328 48.91,0 86.62,-16.41 113.22,-49.218 26.59,-32.832 39.89,-79.77 39.89,-140.86 0,-54.41 -10.74,-97.949 -32.15,-130.5896" /></g></g></svg>